<mxfile host="app.diagrams.net" modified="2024-01-27T20:01:26.436Z" agent="Mozilla/5.0 (Windows NT 10.0; Win64; x64) AppleWebKit/537.36 (KHTML, like Gecko) Chrome/120.0.0.0 Safari/537.36 OPR/106.0.0.0 (Edition Yx 05)" etag="NAyl-QqHjjRPIfYxXrCu" version="23.0.2" type="device">
  <diagram id="C5RBs43oDa-KdzZeNtuy" name="Page-1">
    <mxGraphModel dx="2060" dy="627" grid="1" gridSize="10" guides="1" tooltips="1" connect="1" arrows="1" fold="1" page="1" pageScale="1" pageWidth="827" pageHeight="1169" math="0" shadow="0">
      <root>
        <mxCell id="WIyWlLk6GJQsqaUBKTNV-0" />
        <mxCell id="WIyWlLk6GJQsqaUBKTNV-1" parent="WIyWlLk6GJQsqaUBKTNV-0" />
        <mxCell id="FcraVa8GcmXGqsEITnOb-4" style="edgeStyle=orthogonalEdgeStyle;rounded=0;orthogonalLoop=1;jettySize=auto;html=1;entryX=0.5;entryY=0;entryDx=0;entryDy=0;" parent="WIyWlLk6GJQsqaUBKTNV-1" source="FcraVa8GcmXGqsEITnOb-0" target="FcraVa8GcmXGqsEITnOb-1" edge="1">
          <mxGeometry relative="1" as="geometry" />
        </mxCell>
        <mxCell id="FcraVa8GcmXGqsEITnOb-0" value="&lt;font style=&quot;font-size: 20px;&quot;&gt;Начало&lt;/font&gt;" style="ellipse;whiteSpace=wrap;html=1;" parent="WIyWlLk6GJQsqaUBKTNV-1" vertex="1">
          <mxGeometry x="353" y="40" width="120" height="80" as="geometry" />
        </mxCell>
        <mxCell id="FcraVa8GcmXGqsEITnOb-6" style="edgeStyle=orthogonalEdgeStyle;rounded=0;orthogonalLoop=1;jettySize=auto;html=1;entryX=0.5;entryY=0;entryDx=0;entryDy=0;" parent="WIyWlLk6GJQsqaUBKTNV-1" source="FcraVa8GcmXGqsEITnOb-1" target="FcraVa8GcmXGqsEITnOb-5" edge="1">
          <mxGeometry relative="1" as="geometry" />
        </mxCell>
        <mxCell id="FcraVa8GcmXGqsEITnOb-1" value="&lt;font style=&quot;font-size: 16px;&quot;&gt;Ввод строки str&amp;nbsp;&lt;/font&gt;" style="shape=parallelogram;perimeter=parallelogramPerimeter;whiteSpace=wrap;html=1;fixedSize=1;" parent="WIyWlLk6GJQsqaUBKTNV-1" vertex="1">
          <mxGeometry x="335" y="140" width="157" height="80" as="geometry" />
        </mxCell>
        <mxCell id="FcraVa8GcmXGqsEITnOb-13" style="edgeStyle=orthogonalEdgeStyle;rounded=0;orthogonalLoop=1;jettySize=auto;html=1;entryX=0.5;entryY=0;entryDx=0;entryDy=0;" parent="WIyWlLk6GJQsqaUBKTNV-1" source="FcraVa8GcmXGqsEITnOb-5" target="FcraVa8GcmXGqsEITnOb-12" edge="1">
          <mxGeometry relative="1" as="geometry" />
        </mxCell>
        <mxCell id="FcraVa8GcmXGqsEITnOb-5" value="&lt;font style=&quot;font-size: 16px;&quot;&gt;chars = [ ]&lt;/font&gt;" style="rounded=0;whiteSpace=wrap;html=1;" parent="WIyWlLk6GJQsqaUBKTNV-1" vertex="1">
          <mxGeometry x="339.5" y="240" width="147" height="80" as="geometry" />
        </mxCell>
        <mxCell id="FcraVa8GcmXGqsEITnOb-15" style="edgeStyle=orthogonalEdgeStyle;rounded=0;orthogonalLoop=1;jettySize=auto;html=1;exitX=0.5;exitY=1;exitDx=0;exitDy=0;entryX=0.5;entryY=0;entryDx=0;entryDy=0;" parent="WIyWlLk6GJQsqaUBKTNV-1" source="FcraVa8GcmXGqsEITnOb-12" target="FcraVa8GcmXGqsEITnOb-14" edge="1">
          <mxGeometry relative="1" as="geometry" />
        </mxCell>
        <mxCell id="FcraVa8GcmXGqsEITnOb-12" value="&lt;span style=&quot;font-size: 16px;&quot;&gt;result = &#39; &#39;&lt;/span&gt;" style="rounded=0;whiteSpace=wrap;html=1;" parent="WIyWlLk6GJQsqaUBKTNV-1" vertex="1">
          <mxGeometry x="339.5" y="340" width="147" height="80" as="geometry" />
        </mxCell>
        <mxCell id="FcraVa8GcmXGqsEITnOb-17" style="edgeStyle=orthogonalEdgeStyle;rounded=0;orthogonalLoop=1;jettySize=auto;html=1;entryX=0.5;entryY=0;entryDx=0;entryDy=0;" parent="WIyWlLk6GJQsqaUBKTNV-1" source="FcraVa8GcmXGqsEITnOb-14" target="FcraVa8GcmXGqsEITnOb-16" edge="1">
          <mxGeometry relative="1" as="geometry" />
        </mxCell>
        <mxCell id="FcraVa8GcmXGqsEITnOb-14" value="&lt;span style=&quot;font-size: 16px;&quot;&gt;i = 0&lt;/span&gt;" style="rounded=0;whiteSpace=wrap;html=1;" parent="WIyWlLk6GJQsqaUBKTNV-1" vertex="1">
          <mxGeometry x="378" y="440" width="70.5" height="40" as="geometry" />
        </mxCell>
        <mxCell id="FcraVa8GcmXGqsEITnOb-27" style="edgeStyle=orthogonalEdgeStyle;rounded=0;orthogonalLoop=1;jettySize=auto;html=1;entryX=0.5;entryY=0;entryDx=0;entryDy=0;" parent="WIyWlLk6GJQsqaUBKTNV-1" source="FcraVa8GcmXGqsEITnOb-16" edge="1" target="FcraVa8GcmXGqsEITnOb-46">
          <mxGeometry relative="1" as="geometry">
            <mxPoint x="412.9999999999998" y="800" as="targetPoint" />
          </mxGeometry>
        </mxCell>
        <mxCell id="FcraVa8GcmXGqsEITnOb-113" style="edgeStyle=orthogonalEdgeStyle;rounded=0;orthogonalLoop=1;jettySize=auto;html=1;entryX=1;entryY=0.5;entryDx=0;entryDy=0;" parent="WIyWlLk6GJQsqaUBKTNV-1" source="FcraVa8GcmXGqsEITnOb-16" target="FcraVa8GcmXGqsEITnOb-112" edge="1">
          <mxGeometry relative="1" as="geometry" />
        </mxCell>
        <mxCell id="FcraVa8GcmXGqsEITnOb-16" value="&lt;font style=&quot;font-size: 16px;&quot;&gt;i &amp;lt; str.length&lt;/font&gt;" style="rhombus;whiteSpace=wrap;html=1;fontSize=16;" parent="WIyWlLk6GJQsqaUBKTNV-1" vertex="1">
          <mxGeometry x="322" y="500" width="183" height="80" as="geometry" />
        </mxCell>
        <mxCell id="FcraVa8GcmXGqsEITnOb-26" value="&lt;font style=&quot;font-size: 16px;&quot;&gt;True&lt;/font&gt;" style="text;html=1;strokeColor=none;fillColor=none;align=center;verticalAlign=middle;whiteSpace=wrap;rounded=0;" parent="WIyWlLk6GJQsqaUBKTNV-1" vertex="1">
          <mxGeometry x="418.5" y="570" width="60" height="30" as="geometry" />
        </mxCell>
        <mxCell id="FcraVa8GcmXGqsEITnOb-29" value="&lt;font style=&quot;font-size: 16px;&quot;&gt;False&lt;/font&gt;" style="text;html=1;strokeColor=none;fillColor=none;align=center;verticalAlign=middle;whiteSpace=wrap;rounded=0;" parent="WIyWlLk6GJQsqaUBKTNV-1" vertex="1">
          <mxGeometry x="275" y="540" width="60" height="30" as="geometry" />
        </mxCell>
        <mxCell id="FcraVa8GcmXGqsEITnOb-48" style="edgeStyle=orthogonalEdgeStyle;rounded=0;orthogonalLoop=1;jettySize=auto;html=1;" parent="WIyWlLk6GJQsqaUBKTNV-1" source="FcraVa8GcmXGqsEITnOb-46" target="FcraVa8GcmXGqsEITnOb-47" edge="1">
          <mxGeometry relative="1" as="geometry" />
        </mxCell>
        <mxCell id="FcraVa8GcmXGqsEITnOb-46" value="&lt;span style=&quot;font-size: 16px;&quot;&gt;hasElement = false&lt;/span&gt;" style="rounded=0;whiteSpace=wrap;html=1;" parent="WIyWlLk6GJQsqaUBKTNV-1" vertex="1">
          <mxGeometry x="339.5" y="600" width="147" height="80" as="geometry" />
        </mxCell>
        <mxCell id="FcraVa8GcmXGqsEITnOb-90" style="edgeStyle=orthogonalEdgeStyle;rounded=0;orthogonalLoop=1;jettySize=auto;html=1;entryX=0.5;entryY=0;entryDx=0;entryDy=0;" parent="WIyWlLk6GJQsqaUBKTNV-1" source="FcraVa8GcmXGqsEITnOb-47" target="FcraVa8GcmXGqsEITnOb-89" edge="1">
          <mxGeometry relative="1" as="geometry" />
        </mxCell>
        <mxCell id="FcraVa8GcmXGqsEITnOb-47" value="&lt;font style=&quot;font-size: 16px;&quot;&gt;charsHasThisElement(chars, str[i])&lt;/font&gt;" style="shape=process;whiteSpace=wrap;html=1;backgroundOutline=1;" parent="WIyWlLk6GJQsqaUBKTNV-1" vertex="1">
          <mxGeometry x="244.5" y="700" width="337" height="100" as="geometry" />
        </mxCell>
        <mxCell id="FcraVa8GcmXGqsEITnOb-49" value="&lt;span style=&quot;color: rgb(0, 0, 0); font-family: Helvetica; font-size: 16px; font-style: normal; font-variant-ligatures: normal; font-variant-caps: normal; letter-spacing: normal; orphans: 2; text-indent: 0px; text-transform: none; widows: 2; word-spacing: 0px; -webkit-text-stroke-width: 0px; background-color: rgb(251, 251, 251); text-decoration-thickness: initial; text-decoration-style: initial; text-decoration-color: initial; float: none; display: inline !important;&quot;&gt;charsHasThisElement&lt;/span&gt;" style="text;whiteSpace=wrap;html=1;align=center;fontStyle=1" parent="WIyWlLk6GJQsqaUBKTNV-1" vertex="1">
          <mxGeometry x="1879.25" y="500" width="190" height="40" as="geometry" />
        </mxCell>
        <mxCell id="FcraVa8GcmXGqsEITnOb-52" style="edgeStyle=orthogonalEdgeStyle;rounded=0;orthogonalLoop=1;jettySize=auto;html=1;" parent="WIyWlLk6GJQsqaUBKTNV-1" source="FcraVa8GcmXGqsEITnOb-50" target="FcraVa8GcmXGqsEITnOb-51" edge="1">
          <mxGeometry relative="1" as="geometry" />
        </mxCell>
        <mxCell id="FcraVa8GcmXGqsEITnOb-50" value="&lt;font style=&quot;font-size: 20px;&quot;&gt;Начало&lt;/font&gt;" style="ellipse;whiteSpace=wrap;html=1;" parent="WIyWlLk6GJQsqaUBKTNV-1" vertex="1">
          <mxGeometry x="1909.25" y="540" width="120" height="80" as="geometry" />
        </mxCell>
        <mxCell id="FcraVa8GcmXGqsEITnOb-60" style="edgeStyle=orthogonalEdgeStyle;rounded=0;orthogonalLoop=1;jettySize=auto;html=1;entryX=0.5;entryY=0;entryDx=0;entryDy=0;" parent="WIyWlLk6GJQsqaUBKTNV-1" source="FcraVa8GcmXGqsEITnOb-51" target="FcraVa8GcmXGqsEITnOb-54" edge="1">
          <mxGeometry relative="1" as="geometry" />
        </mxCell>
        <mxCell id="FcraVa8GcmXGqsEITnOb-51" value="&lt;font style=&quot;font-size: 16px;&quot;&gt;Ввод chars, element&lt;/font&gt;" style="shape=parallelogram;perimeter=parallelogramPerimeter;whiteSpace=wrap;html=1;fixedSize=1;" parent="WIyWlLk6GJQsqaUBKTNV-1" vertex="1">
          <mxGeometry x="1875" y="650" width="188.5" height="80" as="geometry" />
        </mxCell>
        <mxCell id="FcraVa8GcmXGqsEITnOb-53" style="edgeStyle=orthogonalEdgeStyle;rounded=0;orthogonalLoop=1;jettySize=auto;html=1;entryX=0.5;entryY=0;entryDx=0;entryDy=0;" parent="WIyWlLk6GJQsqaUBKTNV-1" source="FcraVa8GcmXGqsEITnOb-54" target="FcraVa8GcmXGqsEITnOb-56" edge="1">
          <mxGeometry relative="1" as="geometry" />
        </mxCell>
        <mxCell id="FcraVa8GcmXGqsEITnOb-54" value="&lt;span style=&quot;font-size: 16px;&quot;&gt;i = 0&lt;/span&gt;" style="rounded=0;whiteSpace=wrap;html=1;" parent="WIyWlLk6GJQsqaUBKTNV-1" vertex="1">
          <mxGeometry x="1934" y="760" width="70.5" height="40" as="geometry" />
        </mxCell>
        <mxCell id="FcraVa8GcmXGqsEITnOb-61" style="edgeStyle=orthogonalEdgeStyle;rounded=0;orthogonalLoop=1;jettySize=auto;html=1;entryX=0.5;entryY=0;entryDx=0;entryDy=0;" parent="WIyWlLk6GJQsqaUBKTNV-1" source="FcraVa8GcmXGqsEITnOb-56" edge="1" target="FcraVa8GcmXGqsEITnOb-65">
          <mxGeometry relative="1" as="geometry">
            <mxPoint x="1969" y="1080" as="targetPoint" />
          </mxGeometry>
        </mxCell>
        <mxCell id="FcraVa8GcmXGqsEITnOb-56" value="&lt;font style=&quot;font-size: 16px;&quot;&gt;i &amp;lt; chars.length&lt;/font&gt;" style="rhombus;whiteSpace=wrap;html=1;fontSize=16;" parent="WIyWlLk6GJQsqaUBKTNV-1" vertex="1">
          <mxGeometry x="1877.75" y="830" width="183" height="80" as="geometry" />
        </mxCell>
        <mxCell id="FcraVa8GcmXGqsEITnOb-57" value="&lt;font style=&quot;font-size: 16px;&quot;&gt;True&lt;/font&gt;" style="text;html=1;strokeColor=none;fillColor=none;align=center;verticalAlign=middle;whiteSpace=wrap;rounded=0;" parent="WIyWlLk6GJQsqaUBKTNV-1" vertex="1">
          <mxGeometry x="1969.25" y="910" width="60" height="30" as="geometry" />
        </mxCell>
        <mxCell id="FcraVa8GcmXGqsEITnOb-66" style="edgeStyle=orthogonalEdgeStyle;rounded=0;orthogonalLoop=1;jettySize=auto;html=1;entryX=0.5;entryY=0;entryDx=0;entryDy=0;exitX=0;exitY=0.5;exitDx=0;exitDy=0;" parent="WIyWlLk6GJQsqaUBKTNV-1" source="FcraVa8GcmXGqsEITnOb-65" edge="1" target="FcraVa8GcmXGqsEITnOb-72">
          <mxGeometry relative="1" as="geometry">
            <mxPoint x="1819.25" y="1220.0000000000002" as="targetPoint" />
          </mxGeometry>
        </mxCell>
        <mxCell id="VLXE-Pj-FuiI_jR0PFN_-5" style="edgeStyle=orthogonalEdgeStyle;rounded=0;orthogonalLoop=1;jettySize=auto;html=1;entryX=0.5;entryY=0;entryDx=0;entryDy=0;exitX=1;exitY=0.5;exitDx=0;exitDy=0;" edge="1" parent="WIyWlLk6GJQsqaUBKTNV-1" source="FcraVa8GcmXGqsEITnOb-65" target="FcraVa8GcmXGqsEITnOb-83">
          <mxGeometry relative="1" as="geometry" />
        </mxCell>
        <mxCell id="FcraVa8GcmXGqsEITnOb-65" value="chars[i] === element" style="rhombus;whiteSpace=wrap;html=1;fontSize=16;" parent="WIyWlLk6GJQsqaUBKTNV-1" vertex="1">
          <mxGeometry x="1873.5" y="950" width="191.5" height="80" as="geometry" />
        </mxCell>
        <mxCell id="FcraVa8GcmXGqsEITnOb-69" value="&lt;font style=&quot;font-size: 16px;&quot;&gt;True&lt;/font&gt;" style="text;html=1;strokeColor=none;fillColor=none;align=center;verticalAlign=middle;whiteSpace=wrap;rounded=0;" parent="WIyWlLk6GJQsqaUBKTNV-1" vertex="1">
          <mxGeometry x="1785" y="985" width="60" height="30" as="geometry" />
        </mxCell>
        <mxCell id="FcraVa8GcmXGqsEITnOb-71" value="&lt;font style=&quot;font-size: 16px;&quot;&gt;False&lt;/font&gt;" style="text;html=1;strokeColor=none;fillColor=none;align=center;verticalAlign=middle;whiteSpace=wrap;rounded=0;" parent="WIyWlLk6GJQsqaUBKTNV-1" vertex="1">
          <mxGeometry x="2080" y="985" width="60" height="30" as="geometry" />
        </mxCell>
        <mxCell id="FcraVa8GcmXGqsEITnOb-75" style="edgeStyle=orthogonalEdgeStyle;rounded=0;orthogonalLoop=1;jettySize=auto;html=1;" parent="WIyWlLk6GJQsqaUBKTNV-1" source="FcraVa8GcmXGqsEITnOb-72" target="FcraVa8GcmXGqsEITnOb-74" edge="1">
          <mxGeometry relative="1" as="geometry" />
        </mxCell>
        <mxCell id="FcraVa8GcmXGqsEITnOb-72" value="&lt;span style=&quot;font-size: 16px;&quot;&gt;Вывод true&lt;/span&gt;" style="shape=parallelogram;perimeter=parallelogramPerimeter;whiteSpace=wrap;html=1;fixedSize=1;" parent="WIyWlLk6GJQsqaUBKTNV-1" vertex="1">
          <mxGeometry x="1750" y="1030" width="170" height="60" as="geometry" />
        </mxCell>
        <mxCell id="FcraVa8GcmXGqsEITnOb-74" value="&lt;span style=&quot;font-size: 20px;&quot;&gt;Конец&lt;/span&gt;" style="ellipse;whiteSpace=wrap;html=1;" parent="WIyWlLk6GJQsqaUBKTNV-1" vertex="1">
          <mxGeometry x="1775" y="1110" width="120" height="80" as="geometry" />
        </mxCell>
        <mxCell id="FcraVa8GcmXGqsEITnOb-76" value="&lt;font style=&quot;font-size: 16px;&quot;&gt;False&lt;/font&gt;" style="text;html=1;strokeColor=none;fillColor=none;align=center;verticalAlign=middle;whiteSpace=wrap;rounded=0;" parent="WIyWlLk6GJQsqaUBKTNV-1" vertex="1">
          <mxGeometry x="1824" y="840" width="60" height="30" as="geometry" />
        </mxCell>
        <mxCell id="FcraVa8GcmXGqsEITnOb-82" style="edgeStyle=orthogonalEdgeStyle;rounded=0;orthogonalLoop=1;jettySize=auto;html=1;entryX=1;entryY=0.5;entryDx=0;entryDy=0;" parent="WIyWlLk6GJQsqaUBKTNV-1" source="FcraVa8GcmXGqsEITnOb-78" target="FcraVa8GcmXGqsEITnOb-79" edge="1">
          <mxGeometry relative="1" as="geometry" />
        </mxCell>
        <mxCell id="FcraVa8GcmXGqsEITnOb-78" value="&lt;span style=&quot;font-size: 16px;&quot;&gt;Вывод fasle&lt;/span&gt;" style="shape=parallelogram;perimeter=parallelogramPerimeter;whiteSpace=wrap;html=1;fixedSize=1;" parent="WIyWlLk6GJQsqaUBKTNV-1" vertex="1">
          <mxGeometry x="1654" y="840" width="170" height="60" as="geometry" />
        </mxCell>
        <mxCell id="FcraVa8GcmXGqsEITnOb-79" value="&lt;span style=&quot;font-size: 20px;&quot;&gt;Конец&lt;/span&gt;" style="ellipse;whiteSpace=wrap;html=1;" parent="WIyWlLk6GJQsqaUBKTNV-1" vertex="1">
          <mxGeometry x="1500" y="830" width="120" height="80" as="geometry" />
        </mxCell>
        <mxCell id="FcraVa8GcmXGqsEITnOb-81" value="" style="endArrow=classic;html=1;rounded=0;exitX=0;exitY=0.5;exitDx=0;exitDy=0;entryX=1;entryY=0.5;entryDx=0;entryDy=0;" parent="WIyWlLk6GJQsqaUBKTNV-1" source="FcraVa8GcmXGqsEITnOb-56" edge="1" target="FcraVa8GcmXGqsEITnOb-78">
          <mxGeometry width="50" height="50" relative="1" as="geometry">
            <mxPoint x="1650" y="1080" as="sourcePoint" />
            <mxPoint x="1760" y="940" as="targetPoint" />
          </mxGeometry>
        </mxCell>
        <mxCell id="FcraVa8GcmXGqsEITnOb-86" style="edgeStyle=orthogonalEdgeStyle;rounded=0;orthogonalLoop=1;jettySize=auto;html=1;entryX=1;entryY=0.5;entryDx=0;entryDy=0;exitX=1;exitY=0.5;exitDx=0;exitDy=0;" parent="WIyWlLk6GJQsqaUBKTNV-1" source="FcraVa8GcmXGqsEITnOb-83" target="FcraVa8GcmXGqsEITnOb-56" edge="1">
          <mxGeometry relative="1" as="geometry">
            <mxPoint x="2290" y="1244.9999999999998" as="sourcePoint" />
            <mxPoint x="2270.7500000000005" y="945" as="targetPoint" />
            <Array as="points">
              <mxPoint x="2190" y="1130" />
              <mxPoint x="2190" y="870" />
            </Array>
          </mxGeometry>
        </mxCell>
        <mxCell id="FcraVa8GcmXGqsEITnOb-83" value="&lt;span style=&quot;font-size: 16px;&quot;&gt;i++&lt;/span&gt;" style="rounded=0;whiteSpace=wrap;html=1;" parent="WIyWlLk6GJQsqaUBKTNV-1" vertex="1">
          <mxGeometry x="2050" y="1110" width="70.5" height="40" as="geometry" />
        </mxCell>
        <mxCell id="FcraVa8GcmXGqsEITnOb-93" value="" style="edgeStyle=orthogonalEdgeStyle;rounded=0;orthogonalLoop=1;jettySize=auto;html=1;" parent="WIyWlLk6GJQsqaUBKTNV-1" source="FcraVa8GcmXGqsEITnOb-89" target="FcraVa8GcmXGqsEITnOb-92" edge="1">
          <mxGeometry relative="1" as="geometry" />
        </mxCell>
        <mxCell id="FcraVa8GcmXGqsEITnOb-89" value="&lt;font style=&quot;font-size: 16px;&quot;&gt;hasElement =&amp;nbsp;&lt;br&gt;charsHasThisElement&lt;/font&gt;" style="rounded=0;whiteSpace=wrap;html=1;" parent="WIyWlLk6GJQsqaUBKTNV-1" vertex="1">
          <mxGeometry x="303" y="820" width="220" height="80" as="geometry" />
        </mxCell>
        <mxCell id="FcraVa8GcmXGqsEITnOb-120" style="edgeStyle=orthogonalEdgeStyle;rounded=0;orthogonalLoop=1;jettySize=auto;html=1;entryX=0.5;entryY=0;entryDx=0;entryDy=0;" parent="WIyWlLk6GJQsqaUBKTNV-1" source="FcraVa8GcmXGqsEITnOb-92" target="FcraVa8GcmXGqsEITnOb-111" edge="1">
          <mxGeometry relative="1" as="geometry" />
        </mxCell>
        <mxCell id="FcraVa8GcmXGqsEITnOb-92" value="&lt;font style=&quot;font-size: 16px;&quot;&gt;! hasElement&lt;/font&gt;" style="rhombus;whiteSpace=wrap;html=1;rounded=0;" parent="WIyWlLk6GJQsqaUBKTNV-1" vertex="1">
          <mxGeometry x="309.5" y="920" width="207" height="80" as="geometry" />
        </mxCell>
        <mxCell id="FcraVa8GcmXGqsEITnOb-94" value="&lt;span style=&quot;font-size: 20px;&quot;&gt;Конец&lt;/span&gt;" style="ellipse;whiteSpace=wrap;html=1;" parent="WIyWlLk6GJQsqaUBKTNV-1" vertex="1">
          <mxGeometry x="-38.5" y="500" width="120" height="80" as="geometry" />
        </mxCell>
        <mxCell id="FcraVa8GcmXGqsEITnOb-105" style="edgeStyle=orthogonalEdgeStyle;rounded=0;orthogonalLoop=1;jettySize=auto;html=1;exitX=0;exitY=0.5;exitDx=0;exitDy=0;entryX=0.5;entryY=0;entryDx=0;entryDy=0;" parent="WIyWlLk6GJQsqaUBKTNV-1" source="FcraVa8GcmXGqsEITnOb-92" target="FcraVa8GcmXGqsEITnOb-117" edge="1">
          <mxGeometry relative="1" as="geometry">
            <mxPoint x="253.75" y="1360.0000000000002" as="targetPoint" />
            <mxPoint x="306.5" y="1260" as="sourcePoint" />
          </mxGeometry>
        </mxCell>
        <mxCell id="FcraVa8GcmXGqsEITnOb-110" value="&lt;font style=&quot;font-size: 16px;&quot;&gt;False&lt;/font&gt;" style="text;html=1;strokeColor=none;fillColor=none;align=center;verticalAlign=middle;whiteSpace=wrap;rounded=0;" parent="WIyWlLk6GJQsqaUBKTNV-1" vertex="1">
          <mxGeometry x="560" y="960" width="60" height="30" as="geometry" />
        </mxCell>
        <mxCell id="FcraVa8GcmXGqsEITnOb-115" style="edgeStyle=orthogonalEdgeStyle;rounded=0;orthogonalLoop=1;jettySize=auto;html=1;entryX=1;entryY=0.5;entryDx=0;entryDy=0;exitX=1;exitY=0.5;exitDx=0;exitDy=0;" parent="WIyWlLk6GJQsqaUBKTNV-1" source="FcraVa8GcmXGqsEITnOb-111" target="FcraVa8GcmXGqsEITnOb-16" edge="1">
          <mxGeometry relative="1" as="geometry">
            <mxPoint x="935.5" y="1400" as="sourcePoint" />
            <mxPoint x="900" y="700" as="targetPoint" />
            <Array as="points">
              <mxPoint x="720" y="1020" />
              <mxPoint x="720" y="540" />
            </Array>
          </mxGeometry>
        </mxCell>
        <mxCell id="FcraVa8GcmXGqsEITnOb-111" value="&lt;span style=&quot;font-size: 16px;&quot;&gt;i++&lt;/span&gt;" style="rounded=0;whiteSpace=wrap;html=1;" parent="WIyWlLk6GJQsqaUBKTNV-1" vertex="1">
          <mxGeometry x="530" y="1000" width="70.5" height="40" as="geometry" />
        </mxCell>
        <mxCell id="FcraVa8GcmXGqsEITnOb-114" style="edgeStyle=orthogonalEdgeStyle;rounded=0;orthogonalLoop=1;jettySize=auto;html=1;entryX=1;entryY=0.5;entryDx=0;entryDy=0;" parent="WIyWlLk6GJQsqaUBKTNV-1" source="FcraVa8GcmXGqsEITnOb-112" target="FcraVa8GcmXGqsEITnOb-94" edge="1">
          <mxGeometry relative="1" as="geometry" />
        </mxCell>
        <mxCell id="FcraVa8GcmXGqsEITnOb-112" value="&lt;span style=&quot;font-size: 16px;&quot;&gt;Вывод строки result&lt;/span&gt;" style="shape=parallelogram;perimeter=parallelogramPerimeter;whiteSpace=wrap;html=1;fixedSize=1;" parent="WIyWlLk6GJQsqaUBKTNV-1" vertex="1">
          <mxGeometry x="110" y="510" width="180" height="60" as="geometry" />
        </mxCell>
        <mxCell id="FcraVa8GcmXGqsEITnOb-116" value="&lt;span style=&quot;font-size: 16px;&quot;&gt;True&lt;/span&gt;" style="text;html=1;strokeColor=none;fillColor=none;align=center;verticalAlign=middle;whiteSpace=wrap;rounded=0;" parent="WIyWlLk6GJQsqaUBKTNV-1" vertex="1">
          <mxGeometry x="200" y="960" width="60" height="30" as="geometry" />
        </mxCell>
        <mxCell id="FcraVa8GcmXGqsEITnOb-124" style="edgeStyle=orthogonalEdgeStyle;rounded=0;orthogonalLoop=1;jettySize=auto;html=1;entryX=0.5;entryY=0;entryDx=0;entryDy=0;" parent="WIyWlLk6GJQsqaUBKTNV-1" source="FcraVa8GcmXGqsEITnOb-117" target="FcraVa8GcmXGqsEITnOb-123" edge="1">
          <mxGeometry relative="1" as="geometry" />
        </mxCell>
        <mxCell id="FcraVa8GcmXGqsEITnOb-117" value="&lt;span style=&quot;font-size: 16px;&quot;&gt;result = result + str[i]&lt;/span&gt;" style="rounded=0;whiteSpace=wrap;html=1;" parent="WIyWlLk6GJQsqaUBKTNV-1" vertex="1">
          <mxGeometry x="140" y="1000" width="220" height="80" as="geometry" />
        </mxCell>
        <mxCell id="FcraVa8GcmXGqsEITnOb-126" style="edgeStyle=orthogonalEdgeStyle;rounded=0;orthogonalLoop=1;jettySize=auto;html=1;entryX=0.5;entryY=0;entryDx=0;entryDy=0;" parent="WIyWlLk6GJQsqaUBKTNV-1" source="FcraVa8GcmXGqsEITnOb-123" target="FcraVa8GcmXGqsEITnOb-125" edge="1">
          <mxGeometry relative="1" as="geometry" />
        </mxCell>
        <mxCell id="FcraVa8GcmXGqsEITnOb-123" value="&lt;font style=&quot;font-size: 16px;&quot;&gt;addElementToArray(chars, str[i])&lt;/font&gt;" style="shape=process;whiteSpace=wrap;html=1;backgroundOutline=1;" parent="WIyWlLk6GJQsqaUBKTNV-1" vertex="1">
          <mxGeometry x="81.5" y="1100" width="337" height="100" as="geometry" />
        </mxCell>
        <mxCell id="FcraVa8GcmXGqsEITnOb-128" style="edgeStyle=orthogonalEdgeStyle;rounded=0;orthogonalLoop=1;jettySize=auto;html=1;entryX=0.5;entryY=1;entryDx=0;entryDy=0;" parent="WIyWlLk6GJQsqaUBKTNV-1" source="FcraVa8GcmXGqsEITnOb-125" target="FcraVa8GcmXGqsEITnOb-111" edge="1">
          <mxGeometry relative="1" as="geometry" />
        </mxCell>
        <mxCell id="FcraVa8GcmXGqsEITnOb-125" value="&lt;font style=&quot;font-size: 16px;&quot;&gt;chars =&lt;br&gt;addElementToArray&lt;/font&gt;&lt;span style=&quot;font-size: 16px;&quot;&gt;&lt;br&gt;&lt;/span&gt;" style="rounded=0;whiteSpace=wrap;html=1;" parent="WIyWlLk6GJQsqaUBKTNV-1" vertex="1">
          <mxGeometry x="140" y="1220" width="220" height="80" as="geometry" />
        </mxCell>
        <mxCell id="FcraVa8GcmXGqsEITnOb-129" value="&lt;span style=&quot;color: rgb(0, 0, 0); font-family: Helvetica; font-size: 16px; font-style: normal; font-variant-ligatures: normal; font-variant-caps: normal; letter-spacing: normal; orphans: 2; text-indent: 0px; text-transform: none; widows: 2; word-spacing: 0px; -webkit-text-stroke-width: 0px; background-color: rgb(251, 251, 251); text-decoration-thickness: initial; text-decoration-style: initial; text-decoration-color: initial; float: none; display: inline !important;&quot;&gt;addElementToArray&lt;/span&gt;" style="text;whiteSpace=wrap;html=1;align=center;fontStyle=1" parent="WIyWlLk6GJQsqaUBKTNV-1" vertex="1">
          <mxGeometry x="2604.25" y="500" width="190" height="40" as="geometry" />
        </mxCell>
        <mxCell id="FcraVa8GcmXGqsEITnOb-130" style="edgeStyle=orthogonalEdgeStyle;rounded=0;orthogonalLoop=1;jettySize=auto;html=1;" parent="WIyWlLk6GJQsqaUBKTNV-1" source="FcraVa8GcmXGqsEITnOb-131" target="FcraVa8GcmXGqsEITnOb-133" edge="1">
          <mxGeometry relative="1" as="geometry" />
        </mxCell>
        <mxCell id="FcraVa8GcmXGqsEITnOb-131" value="&lt;font style=&quot;font-size: 20px;&quot;&gt;Начало&lt;/font&gt;" style="ellipse;whiteSpace=wrap;html=1;" parent="WIyWlLk6GJQsqaUBKTNV-1" vertex="1">
          <mxGeometry x="2634.25" y="540" width="120" height="80" as="geometry" />
        </mxCell>
        <mxCell id="FcraVa8GcmXGqsEITnOb-132" style="edgeStyle=orthogonalEdgeStyle;rounded=0;orthogonalLoop=1;jettySize=auto;html=1;entryX=0.5;entryY=0;entryDx=0;entryDy=0;" parent="WIyWlLk6GJQsqaUBKTNV-1" source="FcraVa8GcmXGqsEITnOb-133" target="FcraVa8GcmXGqsEITnOb-135" edge="1">
          <mxGeometry relative="1" as="geometry" />
        </mxCell>
        <mxCell id="FcraVa8GcmXGqsEITnOb-133" value="&lt;font style=&quot;font-size: 16px;&quot;&gt;Ввод chars, element&lt;/font&gt;" style="shape=parallelogram;perimeter=parallelogramPerimeter;whiteSpace=wrap;html=1;fixedSize=1;" parent="WIyWlLk6GJQsqaUBKTNV-1" vertex="1">
          <mxGeometry x="2600" y="650" width="188.5" height="80" as="geometry" />
        </mxCell>
        <mxCell id="FcraVa8GcmXGqsEITnOb-134" style="edgeStyle=orthogonalEdgeStyle;rounded=0;orthogonalLoop=1;jettySize=auto;html=1;entryX=0.5;entryY=0;entryDx=0;entryDy=0;" parent="WIyWlLk6GJQsqaUBKTNV-1" source="FcraVa8GcmXGqsEITnOb-135" target="FcraVa8GcmXGqsEITnOb-154" edge="1">
          <mxGeometry relative="1" as="geometry">
            <mxPoint x="2694.249999999999" y="900" as="targetPoint" />
          </mxGeometry>
        </mxCell>
        <mxCell id="FcraVa8GcmXGqsEITnOb-135" value="&lt;span style=&quot;font-size: 16px;&quot;&gt;len = chars.length + 1&lt;/span&gt;" style="rounded=0;whiteSpace=wrap;html=1;" parent="WIyWlLk6GJQsqaUBKTNV-1" vertex="1">
          <mxGeometry x="2601.25" y="750" width="186" height="60" as="geometry" />
        </mxCell>
        <mxCell id="FcraVa8GcmXGqsEITnOb-156" style="edgeStyle=orthogonalEdgeStyle;rounded=0;orthogonalLoop=1;jettySize=auto;html=1;entryX=0.5;entryY=0;entryDx=0;entryDy=0;" parent="WIyWlLk6GJQsqaUBKTNV-1" source="FcraVa8GcmXGqsEITnOb-149" target="FcraVa8GcmXGqsEITnOb-150" edge="1">
          <mxGeometry relative="1" as="geometry" />
        </mxCell>
        <mxCell id="FcraVa8GcmXGqsEITnOb-149" value="&lt;span style=&quot;font-size: 16px;&quot;&gt;Вывод chars&lt;/span&gt;" style="shape=parallelogram;perimeter=parallelogramPerimeter;whiteSpace=wrap;html=1;fixedSize=1;" parent="WIyWlLk6GJQsqaUBKTNV-1" vertex="1">
          <mxGeometry x="2609.25" y="910" width="170" height="60" as="geometry" />
        </mxCell>
        <mxCell id="FcraVa8GcmXGqsEITnOb-150" value="&lt;span style=&quot;font-size: 20px;&quot;&gt;Конец&lt;/span&gt;" style="ellipse;whiteSpace=wrap;html=1;" parent="WIyWlLk6GJQsqaUBKTNV-1" vertex="1">
          <mxGeometry x="2634.25" y="1000" width="120" height="80" as="geometry" />
        </mxCell>
        <mxCell id="FcraVa8GcmXGqsEITnOb-152" style="edgeStyle=orthogonalEdgeStyle;rounded=0;orthogonalLoop=1;jettySize=auto;html=1;entryX=1;entryY=0.5;entryDx=0;entryDy=0;exitX=1;exitY=0.5;exitDx=0;exitDy=0;" parent="WIyWlLk6GJQsqaUBKTNV-1" edge="1">
          <mxGeometry relative="1" as="geometry">
            <mxPoint x="3800" y="1244.9999999999998" as="sourcePoint" />
            <mxPoint x="3570.75" y="940" as="targetPoint" />
            <Array as="points">
              <mxPoint x="3780" y="1240" />
              <mxPoint x="3780" y="940" />
            </Array>
          </mxGeometry>
        </mxCell>
        <mxCell id="FcraVa8GcmXGqsEITnOb-155" style="edgeStyle=orthogonalEdgeStyle;rounded=0;orthogonalLoop=1;jettySize=auto;html=1;entryX=0.5;entryY=0;entryDx=0;entryDy=0;" parent="WIyWlLk6GJQsqaUBKTNV-1" source="FcraVa8GcmXGqsEITnOb-154" target="FcraVa8GcmXGqsEITnOb-149" edge="1">
          <mxGeometry relative="1" as="geometry" />
        </mxCell>
        <mxCell id="FcraVa8GcmXGqsEITnOb-154" value="&lt;span style=&quot;font-size: 16px;&quot;&gt;chars[len] = element&lt;/span&gt;" style="rounded=0;whiteSpace=wrap;html=1;" parent="WIyWlLk6GJQsqaUBKTNV-1" vertex="1">
          <mxGeometry x="2601.25" y="830" width="186" height="60" as="geometry" />
        </mxCell>
      </root>
    </mxGraphModel>
  </diagram>
</mxfile>
